<svg width="80" height="15" viewBox="0 0 80 15" fill="none" xmlns="http://www.w3.org/2000/svg">
<path d="M0.999758 11.5458C0.912823 10.8588 0.912823 10.7824 1.17363 10.7824C1.30403 10.7824 1.43444 10.7824 1.56484 10.6298C1.69524 10.4771 1.78218 10.0954 1.99952 10.0954C2.30379 10.0954 2.34726 9.4084 2.695 9.4084C2.95581 9.4084 3.21661 9.4084 3.47742 9.4084C3.65129 9.4084 3.73823 9.25573 3.86863 9.10305C3.99903 8.95038 4.21637 9.02672 4.30331 8.72137C4.56411 8.79771 4.65105 8.33969 4.86839 8.33969C5.1292 8.26336 5.2596 7.88168 5.56387 7.95802C5.78121 8.03435 5.99855 7.88168 6.21589 7.95802C6.52016 8.03435 6.65057 7.65267 6.91137 7.57634C7.17218 7.57634 7.43299 7.57634 7.69379 7.57634C7.9546 7.57634 8.21541 7.65267 8.47621 7.57634C8.73702 7.5 8.95436 7.19466 9.25863 7.27099C9.56291 7.34733 9.86718 7.27099 10.128 7.27099C10.4323 7.27099 10.5627 6.73664 10.9104 6.88931C11.2147 7.04198 11.5624 6.88931 11.9102 6.88931C12.2144 6.88931 12.5187 6.96565 12.7795 6.88931C13.1273 6.81298 13.4315 6.4313 13.7793 6.50763C14.127 6.58397 14.5182 6.50763 14.866 6.50763C15.2137 6.50763 15.6049 6.4313 15.9527 6.50763C16.2569 6.58397 16.4308 6.04962 16.7351 6.12595C17.0394 6.20229 17.3871 6.12595 17.7348 6.12595C18.0391 6.12595 18.3434 6.12595 18.6042 6.12595C18.9954 6.04962 19.4301 6.35496 19.7344 5.82061H19.8213C19.9082 5.82061 19.9517 5.82061 20.0386 5.82061H21.0384H21.9078C22.1686 5.43893 22.5598 5.66794 22.864 5.5916C22.9075 5.5916 22.951 5.51527 22.951 5.51527C22.9075 5.43893 22.864 5.28626 22.864 5.28626C22.4728 5.3626 22.0816 5.13359 21.7339 5.5916C21.6469 5.66794 21.4296 5.5916 21.2992 5.5916C20.5603 5.5916 19.8213 5.5916 19.0823 5.5916C18.7781 5.5916 18.6477 6.12595 18.2999 5.97328C18.0391 5.89695 17.7348 5.97328 17.4306 5.97328C17.1263 5.97328 16.822 5.97328 16.5612 5.97328C16.17 6.04962 15.8657 6.4313 15.4311 6.35496C15.0398 6.27863 14.6052 6.35496 14.214 6.35496C13.8227 6.35496 13.3881 6.4313 12.9969 6.35496C12.6491 6.20229 12.4752 6.73664 12.171 6.66031C11.8667 6.58397 11.6059 6.66031 11.3016 6.66031H10.4323H9.56291H8.69355H7.8242C7.47645 6.66031 7.12871 6.58397 6.82444 6.66031C6.43323 6.81298 6.25936 6.27863 5.91162 6.27863C5.56387 6.27863 5.2596 6.27863 4.91186 6.27863C4.86839 6.27863 4.78145 6.20229 4.73799 6.12595C4.52065 5.66794 4.25984 5.5916 3.9121 5.51527C3.65129 5.43893 3.47742 5.05725 3.26008 4.75191C3.69476 4.37023 4.08597 4.75191 4.39024 4.44656C4.39024 4.21756 4.25984 4.14122 4.17291 3.98855C4.08597 3.83588 3.95557 3.68321 3.86863 3.53053C3.73823 3.30153 3.69476 3.14885 3.86863 2.91985C4.0425 2.69084 3.99903 2.3855 3.99903 2.15649C3.99903 1.85115 4.25984 1.69847 4.25984 1.31679C4.25984 1.01145 4.56411 1.16412 4.73799 1.16412C4.99879 1.16412 5.2596 1.16412 5.52041 1.16412C5.60734 1.16412 5.69428 1.01145 5.78121 0.935115C5.95508 0.782443 5.99855 0.782443 6.17242 0.935115C6.30283 1.08779 6.38976 1.16412 6.56363 1.16412C6.65057 1.16412 6.78097 1.16412 6.86791 1.31679C7.08524 1.77481 7.34605 1.85114 7.73726 1.85114C7.99807 1.85114 8.17194 1.62214 8.38928 1.5458C8.51968 1.92748 8.78049 1.77481 8.99783 1.77481C9.25863 1.77481 9.51944 1.77481 9.78025 1.77481H10.4323H11.2147C11.432 1.77481 11.6494 1.77481 11.8667 1.77481C12.0406 1.77481 12.171 1.77481 12.2579 1.5458C12.3014 1.39313 12.3448 1.46947 12.4318 1.5458C12.7361 1.85115 12.7361 1.85115 12.9534 1.5458C12.9969 1.46947 13.0403 1.39313 13.1273 1.31679C13.0403 1.24046 12.9534 1.16412 12.8665 1.16412C12.5622 1.16412 12.2579 1.16412 11.9971 1.16412C11.9536 1.16412 11.9102 1.08779 11.8232 1.01145C11.8667 0.935115 11.9536 0.858779 11.9971 0.858779C12.3448 0.858779 12.6491 0.858779 12.9969 0.858779C13.1273 0.858779 13.2142 0.324427 13.3881 0.706107C13.5185 1.01145 13.7358 0.782443 13.9097 0.858779C13.9532 0.858779 13.9966 0.935115 13.9966 1.01145C14.0401 2.08015 14.5182 1.39313 14.8225 1.5458C14.8225 1.5458 14.9094 1.39313 14.9094 1.24046C14.9094 1.08779 14.9094 0.858779 15.0398 0.935115C15.0833 0.935115 15.1268 1.24046 15.1268 1.39313C15.1702 1.85115 15.2572 2.00382 15.518 1.92748C15.6049 1.92748 15.6919 1.85115 15.7788 1.77481C16.0831 1.5458 16.3873 1.46947 16.6482 1.85114C16.7786 2.00382 16.909 1.92748 17.0394 2.00382C17.1263 2.00382 17.2567 2.00382 17.2567 1.77481C17.2567 1.69847 17.1263 1.69847 17.0828 1.62214C17.0394 1.5458 16.909 1.5458 16.909 1.46947C16.909 1.24046 16.9959 1.24046 17.1263 1.24046C17.1698 1.24046 17.2132 1.24046 17.2567 1.24046C17.474 1.31679 17.561 1.16412 17.561 0.782443C17.561 0.629771 17.6479 0.553435 17.7783 0.706107C17.6914 0.706107 17.8218 0.782443 17.8218 0.706107C18.0391 0.248092 18.3434 0.477099 18.6477 0.400763C18.9085 0.400763 19.1258 0.324427 19.3432 0.706107C19.3866 0.782443 19.604 0.782443 19.7778 0.706107C19.9082 0.629771 19.9517 0.324428 20.1256 0.400763C20.6037 0.400763 21.0819 0.400763 21.56 0.400763C21.6035 0.400763 21.6469 0.553435 21.7339 0.629771C21.8643 0.935114 22.0816 0.858779 22.1686 0.782443C22.4728 0.400763 22.7336 0.324427 23.0379 0.782443C23.0379 0.782443 23.1683 0.706107 23.1683 0.629771C23.3422 0.400763 23.4726 0.477099 23.6465 0.629771C23.8203 0.858779 23.9073 0.858779 23.9942 0.629771C24.1681 0.324427 24.3854 0.477099 24.6028 0.400763C24.907 1.01145 25.3417 0.706107 25.7329 0.706107C25.9068 0.324427 26.1241 0.248092 26.3415 0.629771H26.4284C26.6023 0.171756 26.9065 0.400763 27.1239 0.324427C27.6455 0.324427 28.1671 0.324427 28.6887 0.324427C28.9495 0.324427 29.2973 0.477099 29.4711 0.019084C29.7319 0.553435 30.0362 0.324427 30.384 0.324427C30.6882 0.324427 30.9925 0.324427 31.2533 0.324427C31.4272 0.324427 31.5576 0.248092 31.6445 0.0954198C31.6445 0.0954198 31.688 0.0954199 31.7749 0.248092C31.9053 0.477099 32.0792 0.553435 32.2096 0.248092C32.2965 0.0954199 32.34 0.171756 32.4704 0.248092C32.7747 0.477099 33.079 0.553435 33.3398 0.171756C33.4702 -0.0572519 33.5136 0.171756 33.5571 0.248092C33.731 0.400763 33.731 0.400763 33.9483 0.248092C34.0353 0.171756 34.0787 -0.0572519 34.1657 0.171756C34.3395 0.553435 34.6438 0.553435 34.7742 0.400763C35.035 0.019084 35.2958 0.171756 35.6001 0.0954198C35.8609 0.0954198 36.1217 -0.0572519 36.2956 0.400763C36.339 0.477099 36.5129 0.400763 36.5564 0.324427C36.6868 0.248092 36.7737 0.0954198 36.9476 0.0954198C37.3823 0.0954198 37.817 0.0954198 38.2516 0.0954198C42.2941 0.0954198 46.3366 0.0954198 50.3791 0.0954198C50.6399 0.0954198 50.9007 0.019084 51.0746 0.400763C51.1181 0.477099 51.292 0.400763 51.3354 0.324427C51.4658 0.0954198 51.5528 0.171756 51.6397 0.324427C51.7701 0.477099 51.8136 0.0954199 51.857 0.171756C52.3787 0.629771 52.9437 0.400763 53.5088 0.400763C54.1174 0.477099 54.7694 0.400763 55.3779 0.400763H57.1601C57.7687 0.400763 58.3337 0.400763 58.9423 0.400763C59.2466 0.400763 59.5943 0.629771 59.8551 0.0954198C59.942 -0.0572519 60.1159 0.019084 60.2898 0.019084C63.4195 0.019084 66.5491 0.019084 69.6788 0.019084C69.9396 0.019084 70.1135 0.324428 70.3743 0.400763C70.5916 0.477099 70.809 0.248092 71.0263 0.477099C71.0698 0.553435 71.1133 0.629771 71.2002 0.706107C71.4175 0.0954198 71.6349 0.477099 71.8957 0.706107C72.1565 0.858779 72.4608 0.706107 72.765 0.706107C73.0693 0.706107 73.2432 1.24046 73.5474 1.08779C73.7648 1.01145 74.0691 1.01145 74.3299 1.08779C74.5037 1.08779 74.6341 1.31679 74.808 1.39313C74.9819 1.46947 75.1992 1.31679 75.3731 1.39313C75.547 1.46947 75.6339 1.69847 75.8512 1.77481C75.9816 1.77481 76.1121 2.15649 76.3294 2.08015L76.3729 2.30916C76.199 2.46183 76.2424 2.84351 76.1555 2.99618C76.0251 3.22519 75.8512 3.53053 75.5904 3.4542C75.5035 3.4542 75.4166 3.53053 75.3296 3.60687C75.5035 3.83588 75.6339 4.06489 75.7643 4.29389C75.7643 4.29389 75.7643 4.37023 75.7643 4.44656C75.5035 4.75191 75.3731 5.28626 74.9819 5.28626C74.808 5.28626 74.6341 5.28626 74.4168 5.28626C74.1995 5.28626 74.2429 5.5916 74.2429 5.82061C74.2429 5.89695 74.2429 5.89695 74.2429 5.97328C74.0256 5.97328 73.8952 6.27863 73.6779 6.35496C73.4605 6.4313 73.3301 6.88931 73.1128 7.19466C73.2432 7.27099 73.3301 7.34733 73.417 7.34733C74.5037 7.34733 75.6339 7.34733 76.7206 7.34733C77.0249 7.34733 77.3726 7.42366 77.6769 7.42366C77.8942 7.88168 78.1985 7.65267 78.5028 7.65267C78.7636 8.18702 79.3721 7.80534 79.5895 8.5687C79.6764 8.79771 79.8503 8.95038 79.9807 9.17939C79.9807 9.56107 79.9807 9.94275 79.9807 10.2481C79.9807 10.3244 80.0241 10.5534 79.9807 10.5534C79.6329 10.9351 79.8503 11.4695 79.7633 11.9275L78.9375 12.3092C78.8505 12.2328 78.8071 11.9275 78.7201 12.2328C78.5897 12.5382 78.155 12.2328 78.242 12.9198C78.242 12.9962 78.155 13.0725 78.0681 13.0725C77.8073 12.9962 77.5465 13.1489 77.4161 13.5305C77.2857 13.8359 77.1118 13.8359 76.9379 13.7595C76.7206 13.6832 76.6337 14.2176 76.3729 14.1412C76.1555 14.0649 75.9382 14.0649 75.7208 14.1412C75.46 14.2939 75.3731 13.6832 75.1992 13.9122C75.0254 14.1412 74.8515 14.1412 74.6776 14.0649C74.4168 14.0649 74.156 14.2176 73.9821 13.7595C73.6779 13.7595 73.417 13.6832 73.1128 13.6832C72.852 13.6832 72.5912 13.5305 72.4173 13.9886C72.3738 14.0649 72.2434 14.0649 72.2 14.0649C72.0261 13.9122 71.8957 13.6069 71.7218 14.0649C71.5479 14.0649 71.3741 14.0649 71.1567 14.0649C70.9394 14.0649 70.722 14.0649 70.5047 14.0649H69.9396H69.2876C69.1137 14.0649 68.8964 13.9885 68.7225 14.0649C68.5487 14.1412 68.4183 14.2939 68.2444 14.3702C68.0705 14.4466 67.8966 14.3702 67.6793 14.3702C67.375 14.3702 67.0273 14.4466 66.7665 14.0649C66.6795 13.9885 66.4187 13.9885 66.3753 14.0649C66.1579 14.4466 65.9406 14.3702 65.6798 14.3702C65.4624 14.3702 65.2451 14.4466 65.0712 14.0649C64.9843 13.9122 64.8104 13.9886 64.6366 13.9886C62.2458 13.9886 59.8551 13.9886 57.4644 13.9886C57.247 13.9886 57.0732 13.9885 56.8558 14.2939C56.7254 14.4466 56.4212 14.5229 56.2907 14.1412C56.2473 13.9885 56.2038 13.9885 56.1169 14.1412C55.9865 14.5229 55.7257 14.3702 55.5083 14.3702C55.3345 13.9122 55.0737 13.9885 54.8128 14.0649C54.5955 14.0649 54.3782 13.9885 54.2043 14.2939C54.1174 14.4466 53.8566 14.3702 53.6827 14.3702C50.3357 14.3702 46.9886 14.3702 43.6416 14.3702C43.207 14.3702 42.7723 14.1412 42.4245 14.6756C42.3811 14.7519 42.2507 14.6756 42.2507 14.5992C42.1203 14.2176 41.8595 14.2939 41.6421 14.2939C40.5554 14.2939 39.5122 14.2939 38.4255 14.2939C34.5134 14.2939 30.5578 14.2939 26.6457 14.2939C26.3849 14.2939 26.1676 14.2176 25.9503 14.5992C25.8633 14.7519 25.6894 14.5992 25.559 14.4466C25.3417 14.1412 25.0809 14.1412 24.907 14.5229C24.8201 14.6756 24.8201 14.6756 24.7332 14.5229C24.6897 14.4466 24.5593 14.2939 24.4723 14.2939C24.0377 14.2939 23.603 14.2939 23.1683 14.2939C22.7771 14.2939 22.4728 14.8282 22.0382 14.6756C21.6469 14.5229 21.2123 14.6756 20.8211 14.6756H19.604H18.3869H17.1698H15.9527H14.779C14.3878 14.6756 13.9532 14.6756 13.5619 14.6756C13.3446 14.6756 13.1273 14.5992 12.9534 14.9046C12.9099 15.0573 12.6926 14.9809 12.5622 14.9809C10.2584 14.9809 7.9546 14.9809 5.60734 14.9809C5.39 14.9809 5.17266 15.0573 4.99879 14.6756C4.99879 14.6756 4.78145 14.9046 4.69452 14.9046C3.73823 14.9046 2.78194 14.9809 1.82565 14.9046C1.56484 14.9046 1.30403 14.5992 1.08669 14.3702C0.999758 14.2939 0.999758 14.2939 0.912823 14.3702C0.39121 14.9809 0.434678 15.0573 0 14.2939C0.0869355 14.2176 0.217339 14.2176 0.304274 14.1412C0.434678 14.0649 0.521613 13.8359 0.434678 13.6832C0.39121 13.6069 0.304274 13.5305 0.304274 13.4542C0.173871 13.0725 0.217339 12.9198 0.565081 12.5382C0.695484 12.3855 0.695484 12.1565 0.695484 11.9275C0.695484 11.6221 0.695484 11.3931 0.999758 11.5458C1.08669 11.5458 1.04323 11.4695 0.999758 11.4695H0.912823C0.912823 11.4695 0.912823 11.5458 0.912823 11.6221C0.956291 11.6985 0.999759 11.7748 1.04323 11.7748C1.04323 11.7748 1.08669 11.6985 0.999758 11.5458ZM67.2012 6.96565C67.5054 6.96565 67.7662 6.96565 68.0705 6.96565C68.114 6.96565 68.1574 6.81298 68.1574 6.73664C68.1574 6.73664 68.114 6.66031 68.0705 6.66031C67.5489 6.66031 67.0708 6.66031 66.5491 6.66031C66.5057 6.66031 66.4622 6.81298 66.4622 6.88931C66.4622 6.88931 66.5057 6.96565 66.5491 6.96565C66.7665 6.96565 66.9838 6.96565 67.2012 6.96565ZM6.6071 3.22519C6.69403 3.14885 6.78097 3.14886 6.82444 3.07252V2.99618C6.7375 2.84351 6.52016 2.84351 6.4767 2.99618C6.43323 3.07252 6.56363 3.14885 6.6071 3.22519Z" fill="#E3C300"/>
</svg>
