<svg width="120" height="15" viewBox="0 0 120 15" fill="none" xmlns="http://www.w3.org/2000/svg">
<path d="M1.49964 11.5458C1.36923 10.8588 1.36923 10.7824 1.76044 10.7824C1.95605 10.7824 2.15165 10.7824 2.34726 10.6298C2.54286 10.4771 2.67327 10.0954 2.99928 10.0954C3.45569 10.0954 3.52089 9.4084 4.0425 9.4084C4.43371 9.4084 4.82492 9.4084 5.21613 9.4084C5.47694 9.4084 5.60734 9.25573 5.80295 9.10305C5.99855 8.95038 6.32456 9.02672 6.45496 8.72137C6.84617 8.79771 6.97658 8.33969 7.30258 8.33969C7.69379 8.26336 7.8894 7.88168 8.34581 7.95802C8.67182 8.03435 8.99783 7.88168 9.32383 7.95802C9.78025 8.03435 9.97585 7.65267 10.3671 7.57634C10.7583 7.57634 11.1495 7.57634 11.5407 7.57634C11.9319 7.57634 12.3231 7.65267 12.7143 7.57634C13.1055 7.5 13.4315 7.19466 13.8879 7.27099C14.3444 7.34733 14.8008 7.27099 15.192 7.27099C15.6484 7.27099 15.844 6.73664 16.3656 6.88931C16.822 7.04198 17.3436 6.88931 17.8652 6.88931C18.3217 6.88931 18.7781 6.96565 19.1693 6.88931C19.6909 6.81298 20.1473 6.4313 20.6689 6.50763C21.1905 6.58397 21.7773 6.50763 22.299 6.50763C22.8206 6.50763 23.4074 6.4313 23.929 6.50763C24.3854 6.58397 24.6462 6.04962 25.1026 6.12595C25.559 6.20229 26.0807 6.12595 26.6023 6.12595C27.0587 6.12595 27.5151 6.12595 27.9063 6.12595C28.4931 6.04962 29.1451 6.35496 29.6015 5.82061H29.7319C29.8624 5.82061 29.9276 5.82061 30.058 5.82061H31.5576H32.8616C33.2528 5.43893 33.8397 5.66794 34.2961 5.5916C34.3613 5.5916 34.4265 5.51527 34.4265 5.51527C34.3613 5.43893 34.2961 5.28626 34.2961 5.28626C33.7092 5.3626 33.1224 5.13359 32.6008 5.5916C32.4704 5.66794 32.1444 5.5916 31.9488 5.5916C30.8404 5.5916 29.7319 5.5916 28.6235 5.5916C28.1671 5.5916 27.9715 6.12595 27.4499 5.97328C27.0587 5.89695 26.6023 5.97328 26.1459 5.97328C25.6894 5.97328 25.233 5.97328 24.8418 5.97328C24.255 6.04962 23.7986 6.4313 23.1466 6.35496C22.5598 6.27863 21.9078 6.35496 21.3209 6.35496C20.7341 6.35496 20.0821 6.4313 19.4953 6.35496C18.9737 6.20229 18.7129 6.73664 18.2565 6.66031C17.8 6.58397 17.4088 6.66031 16.9524 6.66031H15.6484H14.3444H13.0403H11.7363C11.2147 6.66031 10.6931 6.58397 10.2367 6.66031C9.64984 6.81298 9.38904 6.27863 8.86742 6.27863C8.34581 6.27863 7.8894 6.27863 7.36779 6.27863C7.30258 6.27863 7.17218 6.20229 7.10698 6.12595C6.78097 5.66794 6.38976 5.5916 5.86815 5.51527C5.47694 5.43893 5.21613 5.05725 4.89012 4.75191C5.54214 4.37023 6.12895 4.75191 6.58537 4.44656C6.58537 4.21756 6.38976 4.14122 6.25936 3.98855C6.12895 3.83588 5.93335 3.68321 5.80295 3.53053C5.60734 3.30153 5.54214 3.14885 5.80295 2.91985C6.06375 2.69084 5.99855 2.3855 5.99855 2.15649C5.99855 1.85115 6.38976 1.69847 6.38976 1.31679C6.38976 1.01145 6.84617 1.16412 7.10698 1.16412C7.49819 1.16412 7.8894 1.16412 8.28061 1.16412C8.41101 1.16412 8.54141 1.01145 8.67182 0.935115C8.93262 0.782443 8.99783 0.782443 9.25863 0.935115C9.45424 1.08779 9.58464 1.16412 9.84545 1.16412C9.97585 1.16412 10.1715 1.16412 10.3019 1.31679C10.6279 1.77481 11.0191 1.85114 11.6059 1.85114C11.9971 1.85114 12.2579 1.62214 12.5839 1.5458C12.7795 1.92748 13.1707 1.77481 13.4967 1.77481C13.8879 1.77481 14.2792 1.77481 14.6704 1.77481H15.6484H16.822C17.148 1.77481 17.474 1.77481 17.8 1.77481C18.0609 1.77481 18.2565 1.77481 18.3869 1.5458C18.4521 1.39313 18.5173 1.46947 18.6477 1.5458C19.1041 1.85115 19.1041 1.85115 19.4301 1.5458C19.4953 1.46947 19.5605 1.39313 19.6909 1.31679C19.5605 1.24046 19.4301 1.16412 19.2997 1.16412C18.8433 1.16412 18.3869 1.16412 17.9957 1.16412C17.9305 1.16412 17.8652 1.08779 17.7348 1.01145C17.8 0.935115 17.9305 0.858779 17.9957 0.858779C18.5173 0.858779 18.9737 0.858779 19.4953 0.858779C19.6909 0.858779 19.8213 0.324427 20.0821 0.706107C20.2777 1.01145 20.6037 0.782443 20.8645 0.858779C20.9297 0.858779 20.9949 0.935115 20.9949 1.01145C21.0601 2.08015 21.7773 1.39313 22.2338 1.5458C22.2338 1.5458 22.3642 1.39313 22.3642 1.24046C22.3642 1.08779 22.3642 0.858779 22.5598 0.935115C22.625 0.935115 22.6902 1.24046 22.6902 1.39313C22.7554 1.85115 22.8858 2.00382 23.277 1.92748C23.4074 1.92748 23.5378 1.85115 23.6682 1.77481C24.1246 1.5458 24.581 1.46947 24.9722 1.85114C25.1678 2.00382 25.3634 1.92748 25.559 2.00382C25.6894 2.00382 25.8851 2.00382 25.8851 1.77481C25.8851 1.69847 25.6894 1.69847 25.6242 1.62214C25.559 1.5458 25.3634 1.5458 25.3634 1.46947C25.3634 1.24046 25.4938 1.24046 25.6894 1.24046C25.7546 1.24046 25.8198 1.24046 25.8851 1.24046C26.2111 1.31679 26.3415 1.16412 26.3415 0.782443C26.3415 0.629771 26.4719 0.553435 26.6675 0.706107C26.5371 0.706107 26.7327 0.782443 26.7327 0.706107C27.0587 0.248092 27.5151 0.477099 27.9715 0.400763C28.3627 0.400763 28.6887 0.324427 29.0147 0.706107C29.0799 0.782443 29.4059 0.782443 29.6667 0.706107C29.8624 0.629771 29.9276 0.324428 30.1884 0.400763C30.9056 0.400763 31.6228 0.400763 32.34 0.400763C32.4052 0.400763 32.4704 0.553435 32.6008 0.629771C32.7964 0.935114 33.1224 0.858779 33.2528 0.782443C33.7092 0.400763 34.1005 0.324427 34.5569 0.782443C34.5569 0.782443 34.7525 0.706107 34.7525 0.629771C35.0133 0.400763 35.2089 0.477099 35.4697 0.629771C35.7305 0.858779 35.8609 0.858779 35.9913 0.629771C36.2521 0.324427 36.5781 0.477099 36.9041 0.400763C37.3605 1.01145 38.0126 0.706107 38.5994 0.706107C38.8602 0.324427 39.1862 0.248092 39.5122 0.629771H39.6426C39.9034 0.171756 40.3598 0.400763 40.6858 0.324427C41.4682 0.324427 42.2507 0.324427 43.0331 0.324427C43.4243 0.324427 43.9459 0.477099 44.2067 0.019084C44.5979 0.553435 45.0543 0.324427 45.5759 0.324427C46.0324 0.324427 46.4888 0.324427 46.88 0.324427C47.1408 0.324427 47.3364 0.248092 47.4668 0.0954198C47.4668 0.0954198 47.532 0.0954199 47.6624 0.248092C47.858 0.477099 48.1188 0.553435 48.3144 0.248092C48.4448 0.0954199 48.51 0.171756 48.7056 0.248092C49.162 0.477099 49.6184 0.553435 50.0097 0.171756C50.2053 -0.0572519 50.2705 0.171756 50.3357 0.248092C50.5965 0.400763 50.5965 0.400763 50.9225 0.248092C51.0529 0.171756 51.1181 -0.0572519 51.2485 0.171756C51.5093 0.553435 51.9657 0.553435 52.1613 0.400763C52.5525 0.019084 52.9437 0.171756 53.4001 0.0954198C53.7914 0.0954198 54.1826 -0.0572519 54.4434 0.400763C54.5086 0.477099 54.7694 0.400763 54.8346 0.324427C55.0302 0.248092 55.1606 0.0954198 55.4214 0.0954198C56.0734 0.0954198 56.7254 0.0954198 57.3774 0.0954198C63.4412 0.0954198 69.5049 0.0954198 75.5687 0.0954198C75.9599 0.0954198 76.3511 0.019084 76.6119 0.400763C76.6771 0.477099 76.9379 0.400763 77.0031 0.324427C77.1987 0.0954198 77.3291 0.171756 77.4596 0.324427C77.6552 0.477099 77.7204 0.0954199 77.7856 0.171756C78.568 0.629771 79.4156 0.400763 80.2632 0.400763C81.176 0.477099 82.1541 0.400763 83.0669 0.400763H85.7402C86.653 0.400763 87.5006 0.400763 88.4134 0.400763C88.8698 0.400763 89.3914 0.629771 89.7827 0.0954198C89.9131 -0.0572519 90.1739 0.019084 90.4347 0.019084C95.1292 0.019084 99.8237 0.019084 104.518 0.019084C104.909 0.019084 105.17 0.324428 105.561 0.400763C105.887 0.477099 106.213 0.248092 106.539 0.477099C106.605 0.553435 106.67 0.629771 106.8 0.706107C107.126 0.0954198 107.452 0.477099 107.844 0.706107C108.235 0.858779 108.691 0.706107 109.148 0.706107C109.604 0.706107 109.865 1.24046 110.321 1.08779C110.647 1.01145 111.104 1.01145 111.495 1.08779C111.756 1.08779 111.951 1.31679 112.212 1.39313C112.473 1.46947 112.799 1.31679 113.06 1.39313C113.32 1.46947 113.451 1.69847 113.777 1.77481C113.972 1.77481 114.168 2.15649 114.494 2.08015L114.559 2.30916C114.298 2.46183 114.364 2.84351 114.233 2.99618C114.038 3.22519 113.777 3.53053 113.386 3.4542C113.255 3.4542 113.125 3.53053 112.994 3.60687C113.255 3.83588 113.451 4.06489 113.646 4.29389C113.646 4.29389 113.646 4.37023 113.646 4.44656C113.255 4.75191 113.06 5.28626 112.473 5.28626C112.212 5.28626 111.951 5.28626 111.625 5.28626C111.299 5.28626 111.364 5.5916 111.364 5.82061C111.364 5.89695 111.364 5.89695 111.364 5.97328C111.038 5.97328 110.843 6.27863 110.517 6.35496C110.191 6.4313 109.995 6.88931 109.669 7.19466C109.865 7.27099 109.995 7.34733 110.126 7.34733C111.756 7.34733 113.451 7.34733 115.081 7.34733C115.537 7.34733 116.059 7.42366 116.515 7.42366C116.841 7.88168 117.298 7.65267 117.754 7.65267C118.145 8.18702 119.058 7.80534 119.384 8.5687C119.515 8.79771 119.775 8.95038 119.971 9.17939C119.971 9.56107 119.971 9.94275 119.971 10.2481C119.971 10.3244 120.036 10.5534 119.971 10.5534C119.449 10.9351 119.775 11.4695 119.645 11.9275L118.406 12.3092C118.276 12.2328 118.211 11.9275 118.08 12.2328C117.885 12.5382 117.233 12.2328 117.363 12.9198C117.363 12.9962 117.233 13.0725 117.102 13.0725C116.711 12.9962 116.32 13.1489 116.124 13.5305C115.929 13.8359 115.668 13.8359 115.407 13.7595C115.081 13.6832 114.95 14.2176 114.559 14.1412C114.233 14.0649 113.907 14.0649 113.581 14.1412C113.19 14.2939 113.06 13.6832 112.799 13.9122C112.538 14.1412 112.277 14.1412 112.016 14.0649C111.625 14.0649 111.234 14.2176 110.973 13.7595C110.517 13.7595 110.126 13.6832 109.669 13.6832C109.278 13.6832 108.887 13.5305 108.626 13.9886C108.561 14.0649 108.365 14.0649 108.3 14.0649C108.039 13.9122 107.844 13.6069 107.583 14.0649C107.322 14.0649 107.061 14.0649 106.735 14.0649C106.409 14.0649 106.083 14.0649 105.757 14.0649H104.909H103.931C103.671 14.0649 103.345 13.9885 103.084 14.0649C102.823 14.1412 102.627 14.2939 102.367 14.3702C102.106 14.4466 101.845 14.3702 101.519 14.3702C101.063 14.3702 100.541 14.4466 100.15 14.0649C100.019 13.9885 99.6281 13.9885 99.5629 14.0649C99.2369 14.4466 98.9109 14.3702 98.5197 14.3702C98.1937 14.3702 97.8677 14.4466 97.6069 14.0649C97.4765 13.9122 97.2156 13.9886 96.9548 13.9886C93.3687 13.9886 89.7827 13.9886 86.1966 13.9886C85.8706 13.9886 85.6098 13.9885 85.2837 14.2939C85.0881 14.4466 84.6317 14.5229 84.4361 14.1412C84.3709 13.9885 84.3057 13.9885 84.1753 14.1412C83.9797 14.5229 83.5885 14.3702 83.2625 14.3702C83.0017 13.9122 82.6105 13.9885 82.2193 14.0649C81.8933 14.0649 81.5672 13.9885 81.3064 14.2939C81.176 14.4466 80.7848 14.3702 80.524 14.3702C75.5035 14.3702 70.483 14.3702 65.4624 14.3702C64.8104 14.3702 64.1584 14.1412 63.6368 14.6756C63.5716 14.7519 63.376 14.6756 63.376 14.5992C63.1804 14.2176 62.7892 14.2939 62.4632 14.2939C60.8331 14.2939 59.2683 14.2939 57.6383 14.2939C51.7701 14.2939 45.8368 14.2939 39.9686 14.2939C39.5774 14.2939 39.2514 14.2176 38.9254 14.5992C38.795 14.7519 38.5342 14.5992 38.3386 14.4466C38.0126 14.1412 37.6213 14.1412 37.3605 14.5229C37.2301 14.6756 37.2301 14.6756 37.0997 14.5229C37.0345 14.4466 36.8389 14.2939 36.7085 14.2939C36.0565 14.2939 35.4045 14.2939 34.7525 14.2939C34.1657 14.2939 33.7092 14.8282 33.0572 14.6756C32.4704 14.5229 31.8184 14.6756 31.2316 14.6756H29.4059H27.5803H25.7546H23.929H22.1686C21.5817 14.6756 20.9297 14.6756 20.3429 14.6756C20.0169 14.6756 19.6909 14.5992 19.4301 14.9046C19.3649 15.0573 19.0389 14.9809 18.8433 14.9809C15.3876 14.9809 11.9319 14.9809 8.41101 14.9809C8.085 14.9809 7.759 15.0573 7.49819 14.6756C7.49819 14.6756 7.17218 14.9046 7.04178 14.9046C5.60734 14.9046 4.1729 14.9809 2.73847 14.9046C2.34726 14.9046 1.95605 14.5992 1.63004 14.3702C1.49964 14.2939 1.49964 14.2939 1.36923 14.3702C0.586815 14.9809 0.652016 15.0573 0 14.2939C0.130403 14.2176 0.326008 14.2176 0.456411 14.1412C0.652016 14.0649 0.78242 13.8359 0.652016 13.6832C0.586815 13.6069 0.456411 13.5305 0.456411 13.4542C0.260807 13.0725 0.326008 12.9198 0.847621 12.5382C1.04323 12.3855 1.04323 12.1565 1.04323 11.9275C1.04323 11.6221 1.04323 11.3931 1.49964 11.5458C1.63004 11.5458 1.56484 11.4695 1.49964 11.4695H1.36923C1.36923 11.4695 1.36923 11.5458 1.36923 11.6221C1.43444 11.6985 1.49964 11.7748 1.56484 11.7748C1.56484 11.7748 1.63004 11.6985 1.49964 11.5458ZM100.802 6.96565C101.258 6.96565 101.649 6.96565 102.106 6.96565C102.171 6.96565 102.236 6.81298 102.236 6.73664C102.236 6.73664 102.171 6.66031 102.106 6.66031C101.323 6.66031 100.606 6.66031 99.8237 6.66031C99.7585 6.66031 99.6933 6.81298 99.6933 6.88931C99.6933 6.88931 99.7585 6.96565 99.8237 6.96565C100.15 6.96565 100.476 6.96565 100.802 6.96565ZM9.91065 3.22519C10.0411 3.14885 10.1715 3.14886 10.2367 3.07252V2.99618C10.1063 2.84351 9.78025 2.84351 9.71504 2.99618C9.64984 3.07252 9.84545 3.14885 9.91065 3.22519Z" fill="#E3C300"/>
</svg>
